<?xml version="1.0" encoding="UTF-8" standalone="no"?><!-- Generator: Gravit.io --><svg xmlns="http://www.w3.org/2000/svg" xmlns:xlink="http://www.w3.org/1999/xlink" style="isolation:isolate" viewBox="0 0 840 490" width="840pt" height="490pt"><defs><clipPath id="_clipPath_VUijBrCusJwNIXPozIlRxP9YZNoI1395"><rect width="840" height="490"/></clipPath></defs><g clip-path="url(#_clipPath_VUijBrCusJwNIXPozIlRxP9YZNoI1395)"><linearGradient id="_lgradient_0" x1="0" y1="0.5" x2="1" y2="0.5"><stop offset="0%" style="stop-color:#F6C7F7"/><stop offset="96.95652173913044%" style="stop-color:#FFDD43"/></linearGradient><rect width="840" height="490" style="fill:url(#_lgradient_0);"/><path d=" M -8 387.722 L -8 498.832 L 880 507 L 873.773 387.722 L -8 387.722 Z " fill="rgb(234,234,234)"/><linearGradient id="_lgradient_1" x1="0.5000000000000001" y1="0" x2="0.49999999999999994" y2="1" gradientTransform="matrix(67,0,0,67,304,141)" gradientUnits="userSpaceOnUse"><stop offset="0%" stop-opacity="1" style="stop-color:rgb(98,151,249)"/><stop offset="96.95652173913044%" stop-opacity="1" style="stop-color:rgb(3,109,170)"/></linearGradient><rect x="304" y="141" width="67" height="67" transform="matrix(1,0,0,1,0,0)" fill="url(#_lgradient_1)"/><path d=" M 331.469 182.718 L 331.469 148.57 L 333.479 148.358 L 333.384 186.112 L 331.469 182.718 Z " fill="rgb(30,30,30)"/><path d=" M 310.197 183.432 L 311.202 186.112 L 354.082 186.112 L 371 183.432 L 310.197 183.432 Z " fill="rgb(36,36,36)"/><path d=" M 312.039 186.112 Q 315.557 195.458 319.744 195.994 L 352.24 195.994 Q 362.625 191.941 364.97 184.102 L 352.24 186.112 L 312.039 186.112 Z " fill="rgb(42,42,42)"/><path d=" M 317.064 186.112 L 322.089 195.994 L 325.439 195.994 L 319.744 184.939 L 317.064 186.112 Z " fill="rgb(36,36,36)"/><path d=" M 341.52 156.464 L 354.082 178.741 L 333.384 178.741 L 333.384 150.936 L 341.52 156.464 Z " fill="rgb(255,255,255)"/><path d=" M 326.071 156.296 L 317.734 178.574 L 331.469 178.574 L 331.469 150.768 L 326.071 156.296 Z " fill="rgb(217,217,217)"/><linearGradient id="_lgradient_2" x1="0.8535533905932737" y1="0.8535533905932738" x2="0.14644660940672627" y2="0.14644660940672627" gradientTransform="matrix(323,0,0,204.5,386,156.464)" gradientUnits="userSpaceOnUse"><stop offset="1.7391304347826086%" stop-opacity="1" style="stop-color:rgb(246,255,208)"/><stop offset="97.3913043478261%" stop-opacity="1" style="stop-color:rgb(255,220,220)"/></linearGradient><rect x="386" y="156.464" width="323" height="204.5" transform="matrix(1,0,0,1,0,0)" fill="url(#_lgradient_2)" vector-effect="non-scaling-stroke" stroke-width="3" stroke="rgb(0,0,0)" stroke-linejoin="miter" stroke-linecap="square" stroke-miterlimit="2"/><rect x="532" y="360.964" width="23" height="41.036" transform="matrix(1,0,0,1,0,0)" fill="rgb(30,30,30)" vector-effect="non-scaling-stroke" stroke-width="2" stroke="rgb(0,0,0)" stroke-linejoin="miter" stroke-linecap="square" stroke-miterlimit="2"/><rect x="439" y="402" width="217" height="9" transform="matrix(1,0,0,1,0,0)" fill="rgb(8,8,8)" vector-effect="non-scaling-stroke" stroke-width="2" stroke="rgb(0,0,0)" stroke-linejoin="miter" stroke-linecap="square" stroke-miterlimit="2"/><rect x="739.564" y="388.779" width="4.361" height="35.291" transform="matrix(1,0,0,1,0,0)" fill="rgb(11,11,11)" vector-effect="non-scaling-stroke" stroke-width="1" stroke="rgb(0,0,0)" stroke-linejoin="miter" stroke-linecap="square" stroke-miterlimit="2"/><path d=" M 718 421.01 L 765.49 421.01 L 765.49 428.473 L 718 428.473 L 718 421.01 Z " fill="rgb(11,11,11)" vector-effect="non-scaling-stroke" stroke-width="1" stroke="rgb(0,0,0)" stroke-linejoin="miter" stroke-linecap="square" stroke-miterlimit="3"/><path d=" M 739.564 388.779 Q 718 384.597 718 363.023 L 718 325.71 Q 720.326 305.221 743.926 304 Q 766.847 307.935 765.49 325.71 L 765.49 363.023 Q 767.913 389.297 739.564 388.779 Z " fill="rgb(32,32,32)" vector-effect="non-scaling-stroke" stroke-width="1" stroke="rgb(0,0,0)" stroke-linejoin="miter" stroke-linecap="square" stroke-miterlimit="3"/><circle vector-effect="non-scaling-stroke" cx="769.505419496748" cy="337.44324003139883" r="25.57984456944712" fill="rgb(0,0,0)" stroke-width="2" stroke="rgb(0,0,0)" stroke-linejoin="miter" stroke-linecap="square" stroke-miterlimit="3"/><path d=" M 765.49 363.023 Q 766 396.8 718 372" fill="none" vector-effect="non-scaling-stroke" stroke-width="3" stroke="rgb(0,0,0)" stroke-linejoin="miter" stroke-linecap="square" stroke-miterlimit="3"/><line x1="588.086" y1="273.705" x2="590.352" y2="262.294"/><path d=" M 268 363.023 Q 218 355.579 217 388.779 Q 218 431.82 263 421.01" fill="none" vector-effect="non-scaling-stroke" stroke-width="9" stroke="rgb(21,21,21)" stroke-linejoin="miter" stroke-linecap="square" stroke-miterlimit="3"/><path d="M 261.848 337.443 L 334.747 337.443 C 337.976 337.443 340.598 340.065 340.598 343.295 L 340.598 432.148 C 340.598 435.378 337.976 438 334.747 438 L 261.848 438 C 258.619 438 255.997 435.378 255.997 432.148 L 255.997 343.295 C 255.997 340.065 258.619 337.443 261.848 337.443 Z" style="stroke:none;fill:#FFFF00;stroke-miterlimit:10;"/><path d=" M 278 382 L 295 360.964 L 312.039 382 L 278 382 Z " fill="rgb(62,62,62)"/><path d=" M 271.3 407.079 L 294.992 377.761 L 318.739 407.079 L 271.3 407.079 Z " fill="rgb(62,62,62)"/><rect x="290" y="406.424" width="9.02" height="16.756" transform="matrix(1,0,0,1,0,0)" fill="rgb(62,62,62)"/><path d=" M 282 325.71 Q 259.993 323.561 259.997 312.129 Q 261 296.856 282 297.128 L 335.469 297.128 Q 348.141 285.638 330.071 283 L 282 283" fill="none" vector-effect="non-scaling-stroke" stroke-width="9" stroke="rgb(255,255,255)" stroke-linejoin="miter" stroke-linecap="square" stroke-miterlimit="3"/><rect x="372" y="433.982" width="329" height="81.018" transform="matrix(1,0,0,1,0,0)" fill="rgb(255,255,255)"/><g><rect x="381" y="445" width="23" height="11" transform="matrix(1,0,0,1,0,0)" fill="rgb(191,191,191)"/><rect x="408" y="445" width="23" height="11" transform="matrix(1,0,0,1,0,0)" fill="rgb(191,191,191)"/><rect x="437" y="445" width="23" height="11" transform="matrix(1,0,0,1,0,0)" fill="rgb(191,191,191)"/><rect x="464" y="445" width="23" height="11" transform="matrix(1,0,0,1,0,0)" fill="rgb(191,191,191)"/><rect x="494" y="445" width="23" height="11" transform="matrix(1,0,0,1,0,0)" fill="rgb(191,191,191)"/><rect x="521" y="445" width="23" height="11" transform="matrix(1,0,0,1,0,0)" fill="rgb(191,191,191)"/><rect x="552" y="445" width="23" height="11" transform="matrix(1,0,0,1,0,0)" fill="rgb(191,191,191)"/><rect x="579" y="445" width="23" height="11" transform="matrix(1,0,0,1,0,0)" fill="rgb(191,191,191)"/><rect x="605" y="445" width="23" height="11" transform="matrix(1,0,0,1,0,0)" fill="rgb(191,191,191)"/><rect x="632" y="445" width="23" height="11" transform="matrix(1,0,0,1,0,0)" fill="rgb(191,191,191)"/><rect x="660" y="445" width="23" height="11" transform="matrix(1,0,0,1,0,0)" fill="rgb(191,191,191)"/><rect x="660" y="463.491" width="23" height="11" transform="matrix(1,0,0,1,0,0)" fill="rgb(191,191,191)"/><rect x="633" y="463.491" width="23" height="11" transform="matrix(1,0,0,1,0,0)" fill="rgb(191,191,191)"/><rect x="604" y="463.491" width="23" height="11" transform="matrix(1,0,0,1,0,0)" fill="rgb(191,191,191)"/><rect x="577" y="463.491" width="23" height="11" transform="matrix(1,0,0,1,0,0)" fill="rgb(191,191,191)"/><rect x="547" y="463.491" width="23" height="11" transform="matrix(1,0,0,1,0,0)" fill="rgb(191,191,191)"/><rect x="520" y="463.491" width="23" height="11" transform="matrix(1,0,0,1,0,0)" fill="rgb(191,191,191)"/><rect x="489" y="463.491" width="23" height="11" transform="matrix(1,0,0,1,0,0)" fill="rgb(191,191,191)"/><rect x="462" y="463.491" width="23" height="11" transform="matrix(1,0,0,1,0,0)" fill="rgb(191,191,191)"/><rect x="436" y="463.491" width="23" height="11" transform="matrix(1,0,0,1,0,0)" fill="rgb(191,191,191)"/><rect x="409" y="463.491" width="23" height="11" transform="matrix(1,0,0,1,0,0)" fill="rgb(191,191,191)"/><rect x="381" y="463.491" width="23" height="11" transform="matrix(1,0,0,1,0,0)" fill="rgb(191,191,191)"/></g><path d="M 748.584 450.5 L 760.416 450.5 C 773.984 450.5 785 461.516 785 475.084 L 785 515.416 C 785 528.984 773.984 540 760.416 540 L 748.584 540 C 735.016 540 724 528.984 724 515.416 L 724 475.084 C 724 461.516 735.016 450.5 748.584 450.5 Z" style="stroke:none;fill:#FFFFFF;stroke-miterlimit:10;"/><path d="M 753.687 466 L 753.813 466 C 755.572 466 757 467.428 757 469.187 L 757 470.322 C 757 472.081 755.572 473.509 753.813 473.509 L 753.687 473.509 C 751.928 473.509 750.5 472.081 750.5 470.322 L 750.5 469.187 C 750.5 467.428 751.928 466 753.687 466 Z" style="stroke:none;fill:#BFBFBF;stroke-miterlimit:10;"/><rect x="420.5" y="215.591" width="195" height="116.409" transform="matrix(1,0,0,1,0,0)" fill="rgb(11,11,11)"/><rect x="420.5" y="215.591" width="195" height="16.409" transform="matrix(1,0,0,1,0,0)" fill="rgb(0,0,0)"/><g><path d="M 611.538 219.216 L 611.597 219.278 C 611.895 219.596 611.879 220.097 611.561 220.395 L 604.992 226.559 C 604.674 226.857 604.173 226.841 603.875 226.523 L 603.816 226.461 C 603.518 226.143 603.534 225.643 603.852 225.344 L 610.421 219.18 C 610.739 218.882 611.24 218.898 611.538 219.216 Z" style="stroke:none;fill:#7B7B7B;stroke-miterlimit:10;"/><path d="M 603.6 219.528 L 603.6 219.528 C 603.89 219.172 604.415 219.118 604.771 219.408 L 611.693 225.039 C 612.049 225.33 612.103 225.855 611.813 226.211 L 611.813 226.211 C 611.523 226.568 610.998 226.622 610.642 226.331 L 603.72 220.7 C 603.364 220.41 603.31 219.885 603.6 219.528 Z" style="stroke:none;fill:#7B7B7B;stroke-miterlimit:10;"/></g><rect x="431" y="245" width="74.5" height="38" transform="matrix(1,0,0,1,0,0)" fill="rgb(30,30,30)"/><rect x="558.5" y="245" width="46.5" height="22.999" transform="matrix(1,0,0,1,0,0)" fill="rgb(30,30,30)"/><rect x="558.5" y="283" width="46.5" height="42.71" transform="matrix(1,0,0,1,0,0)" fill="rgb(30,30,30)"/><rect x="521" y="245" width="10.5" height="80.71" transform="matrix(1,0,0,1,0,0)" fill="rgb(30,30,30)"/><rect x="432" y="297.128" width="68.5" height="7.227" transform="matrix(1,0,0,1,0,0)" fill="rgb(30,30,30)"/><rect x="432" y="318" width="7" height="7.71" transform="matrix(1,0,0,1,0,0)" fill="rgb(30,30,30)"/><rect x="448.5" y="318" width="57" height="7.71" transform="matrix(1,0,0,1,0,0)" fill="rgb(30,30,30)"/><path d="M 523.698 155 L 567.302 155 C 568.791 155 570 156.209 570 157.698 L 570 163.302 C 570 164.791 568.791 166 567.302 166 L 523.698 166 C 522.209 166 521 164.791 521 163.302 L 521 157.698 C 521 156.209 522.209 155 523.698 155 Z" style="stroke:none;fill:#F0F0F0;stroke-miterlimit:10;"/><circle vector-effect="non-scaling-stroke" cx="544.5856104396569" cy="146.33561043965668" r="18.335610439656648" fill="rgb(242,242,242)" stroke-width="1" stroke="rgb(130,130,130)" stroke-linejoin="miter" stroke-linecap="square" stroke-miterlimit="3"/><circle vector-effect="non-scaling-stroke" cx="544.5856104396569" cy="146.33561043965665" r="9.335610439656648" fill="rgb(66,66,66)"/><path d=" M 310.075 337.443 L 318.739 360.964 L 340.598 374 C 339.937 351.575 343.607 339.151 336 337.443 L 310.075 337.443 Z " fill="rgb(255,255,255)" fill-opacity="0.45"/><path d=" M 325.949 338.836 L 325.949 398.393 L 310.075 398.393 L 311.08 422.403 L 335.348 422.403 L 335.348 398.393 L 325.949 398.393" fill="rgb(0,0,0)" vector-effect="non-scaling-stroke" stroke-width="3" stroke="rgb(0,0,0)" stroke-linejoin="miter" stroke-linecap="square" stroke-miterlimit="3"/><path d=" M 255.672 398.268 L 276.247 416.16 L 292.35 438.525 L 255.672 437.63 L 255.672 398.268 Z " fill="rgb(0,0,0)" fill-opacity="0.15"/><path d="M 901.654 -3.134 L 901.654 -3.134 C 903.64 -5.784 907.404 -6.324 910.054 -4.338 L 1121.227 153.87 C 1123.877 155.856 1124.417 159.619 1122.431 162.269 L 1122.431 162.269 C 1120.446 164.92 1116.682 165.459 1114.032 163.474 L 902.859 5.266 C 900.209 3.28 899.669 -0.484 901.654 -3.134 Z" style="stroke:none;fill:#464646;stroke-miterlimit:10;"/><path d="M 775.063 66.807 L 773.711 64.247 C 772.647 62.234 773.418 59.736 775.431 58.672 L 892.277 -3.058 C 894.29 -4.121 896.788 -3.35 897.851 -1.337 L 899.203 1.223 C 900.267 3.236 899.496 5.733 897.483 6.797 L 780.637 68.527 C 778.624 69.591 776.127 68.82 775.063 66.807 Z" style="stroke:none;fill:#464646;stroke-miterlimit:10;"/><linearGradient id="_lgradient_3" x1="0.1464466094067262" y1="0.8535533905932737" x2="0.8535533905932737" y2="0.14644660940672627" gradientTransform="matrix(163.49,0,0,144.49,609,66.51)" gradientUnits="userSpaceOnUse"><stop offset="48.69565217391305%" stop-opacity="0" style="stop-color:rgb(255,255,255)"/><stop offset="98.69565217391305%" stop-opacity="0.88" style="stop-color:rgb(255,255,255)"/></linearGradient><path d=" M 697 71.454 L 609 84 L 716 211 L 757 144 L 772.49 119 L 725 66.51 L 697 71.454 Z " fill="url(#_lgradient_3)"/><circle vector-effect="non-scaling-stroke" cx="743.3276159064973" cy="93.540023139672" r="19.310880910002766" fill="rgb(255,255,255)"/><path d=" M 756.987 35.607 L 798.434 87.417 L 773 127.923 L 709.887 60.099 L 756.987 35.607 Z " fill="rgb(38,38,38)"/></g></svg>