<?xml version="1.0" encoding="utf-8"?>
<!-- Generator: Adobe Illustrator 22.1.0, SVG Export Plug-In . SVG Version: 6.00 Build 0)  -->
<svg version="1.1" id="Layer_1" xmlns="http://www.w3.org/2000/svg" xmlns:xlink="http://www.w3.org/1999/xlink" x="0px" y="0px"
	 viewBox="0 0 2550 1550" style="enable-background:new 0 0 2550 1550;" xml:space="preserve">
<style type="text/css">
	.st0{clip-path:url(#SVGID_2_);}
	.st1{fill:url(#SVGID_3_);}
	.st2{filter:url(#vbSAsLLBSGGlcIZ8DZQzZ9mNBSr03f6K);}
	.st3{opacity:0.25;fill:#FFFFFF;}
	.st4{fill:url(#SVGID_4_);}
	.st5{fill:url(#SVGID_5_);}
	.st6{fill:#FFFFFF;fill-opacity:5.000000e-02;}
	.st7{fill:url(#SVGID_6_);}
	.st8{fill:#FFFFFF;fill-opacity:0.15;}
	.st9{fill:url(#SVGID_7_);}
	.st10{fill-opacity:5.000000e-02;}
	.st11{fill:#FFFFFF;fill-opacity:0.1;}
	.st12{filter:url(#jl9lPNcUo12Lin8xT1XURPleDXoF220U);}
	.st13{fill:url(#SVGID_8_);}
	.st14{filter:url(#apnm7NxMqQH4I2Q1sB8hdeub2yXzvmkN);}
	.st15{fill:none;}
	.st16{fill-opacity:0.15;}
	.st17{fill:#FFFFFF;fill-opacity:3.000000e-02;}
	.st18{fill-opacity:0.1;}
	.st19{fill:#29B07F;}
	.st20{fill:#4A4A4A;}
	.st21{fill:#333333;}
	.st22{fill:#2D2D2D;}
	.st23{fill-opacity:3.000000e-02;}
	.st24{fill:none;stroke:url(#SVGID_9_);stroke-width:6;stroke-linecap:square;stroke-miterlimit:3;}
	.st25{fill:none;stroke:url(#SVGID_10_);stroke-width:6;stroke-linecap:square;stroke-miterlimit:3;}
	.st26{fill:none;stroke:url(#SVGID_11_);stroke-width:6;stroke-linecap:square;stroke-miterlimit:3;}
	.st27{fill:none;stroke:url(#SVGID_12_);stroke-width:6;stroke-linecap:square;stroke-miterlimit:3;}
	.st28{fill:none;stroke:url(#SVGID_13_);stroke-width:6;stroke-linecap:square;stroke-miterlimit:3;}
	.st29{fill:none;stroke:url(#SVGID_14_);stroke-width:6;stroke-linecap:square;stroke-miterlimit:3;}
	.st30{opacity:0.7;}
	.st31{fill:url(#SVGID_15_);}
	.st32{fill:url(#SVGID_16_);}
	.st33{fill:url(#SVGID_17_);}
	.st34{fill:url(#SVGID_18_);}
	.st35{opacity:0.75;fill:#EBEBEB;enable-background:new    ;}
</style>
<filter  color-interpolation-filters="sRGB" filterUnits="objectBoundingBox" height="400%" id="vbSAsLLBSGGlcIZ8DZQzZ9mNBSr03f6K" width="400%" x="-200%" y="-200%">
	<feOffset  dx="0" dy="-25" in="SourceGraphic" xmlns="http://www.w3.org/2000/svg"></feOffset>
	<feGaussianBlur  result="pf_100_offsetBlur" stdDeviation="0" xmlns="http://www.w3.org/2000/svg"></feGaussianBlur>
	
		<feComposite  in="SourceGraphic" in2="pf_100_offsetBlur" operator="out" result="pf_100_inverse" xmlns="http://www.w3.org/2000/svg">
		</feComposite>
	<feFlood  flood-color="#000000" flood-opacity="0.25" result="pf_100_color" xmlns="http://www.w3.org/2000/svg"></feFlood>
	<feComposite  in="pf_100_color" in2="pf_100_inverse" operator="in" result="pf_100_shadow" xmlns="http://www.w3.org/2000/svg">
		</feComposite>
	<feComposite  in="pf_100_shadow" in2="SourceGraphic" operator="over" xmlns="http://www.w3.org/2000/svg"></feComposite>
</filter>
<filter  color-interpolation-filters="sRGB" filterUnits="objectBoundingBox" height="400%" id="jl9lPNcUo12Lin8xT1XURPleDXoF220U" width="400%" x="-200%" y="-200%">
	<feOffset  dx="25" dy="-25" in="SourceGraphic" xmlns="http://www.w3.org/2000/svg"></feOffset>
	<feGaussianBlur  result="pf_100_offsetBlur" stdDeviation="0" xmlns="http://www.w3.org/2000/svg"></feGaussianBlur>
	
		<feComposite  in="SourceGraphic" in2="pf_100_offsetBlur" operator="out" result="pf_100_inverse" xmlns="http://www.w3.org/2000/svg">
		</feComposite>
	<feFlood  flood-color="#000000" flood-opacity="0.1" result="pf_100_color" xmlns="http://www.w3.org/2000/svg"></feFlood>
	<feComposite  in="pf_100_color" in2="pf_100_inverse" operator="in" result="pf_100_shadow" xmlns="http://www.w3.org/2000/svg">
		</feComposite>
	<feComposite  in="pf_100_shadow" in2="SourceGraphic" operator="over" xmlns="http://www.w3.org/2000/svg"></feComposite>
</filter>
<filter  color-interpolation-filters="sRGB" filterUnits="objectBoundingBox" height="400%" id="apnm7NxMqQH4I2Q1sB8hdeub2yXzvmkN" width="400%" x="-200%" y="-200%">
	<feOffset  dx="0" dy="-25" in="SourceGraphic" xmlns="http://www.w3.org/2000/svg"></feOffset>
	<feGaussianBlur  result="pf_100_offsetBlur" stdDeviation="0" xmlns="http://www.w3.org/2000/svg"></feGaussianBlur>
	
		<feComposite  in="SourceGraphic" in2="pf_100_offsetBlur" operator="out" result="pf_100_inverse" xmlns="http://www.w3.org/2000/svg">
		</feComposite>
	<feFlood  flood-color="#000000" flood-opacity="0.25" result="pf_100_color" xmlns="http://www.w3.org/2000/svg"></feFlood>
	<feComposite  in="pf_100_color" in2="pf_100_inverse" operator="in" result="pf_100_shadow" xmlns="http://www.w3.org/2000/svg">
		</feComposite>
	<feComposite  in="pf_100_shadow" in2="SourceGraphic" operator="over" xmlns="http://www.w3.org/2000/svg"></feComposite>
</filter>
<g>
	<defs>
		<rect id="SVGID_1_" width="2550" height="1550"/>
	</defs>
	<clipPath id="SVGID_2_">
		<use xlink:href="#SVGID_1_"  style="overflow:visible;"/>
	</clipPath>
	<g class="st0">
		
			<linearGradient id="SVGID_3_" gradientUnits="userSpaceOnUse" x1="634.8974" y1="1287.0232" x2="635.6046" y2="1286.3162" gradientTransform="matrix(2550 0 0 -1550 -1618615 1995113)">
			<stop  offset="0" style="stop-color:#70B5FF"/>
			<stop  offset="0.9826" style="stop-color:#0084FF"/>
		</linearGradient>
		<rect class="st1" width="2550" height="1550"/>
		<g class="st2">
			<g>
				<polygon class="st3" points="2022,977.6 1974,1060.6 2022,1134.6 2066,1060.6 				"/>
			</g>
		</g>
		
			<linearGradient id="SVGID_4_" gradientUnits="userSpaceOnUse" x1="634.7258" y1="1286.7778" x2="635.7258" y2="1286.7778" gradientTransform="matrix(2316.2871 0 0 -946.809 -1469947.625 1219467.375)">
			<stop  offset="0" style="stop-color:#004288"/>
			<stop  offset="1" style="stop-color:#50A4FF"/>
		</linearGradient>
		<path class="st4" d="M260,1596c-9.3-316,208.7-480.7,654-494c69.3-317.3,258-463.3,566-438c314.7,16,485.3,157.3,512,424
			c233.3-28,422,66.7,566,284l18,236L260,1596z"/>
		
			<linearGradient id="SVGID_5_" gradientUnits="userSpaceOnUse" x1="633.8327" y1="1287.6191" x2="634.8327" y2="1287.6191" gradientTransform="matrix(544 0 0 -235 -343739 303021)">
			<stop  offset="0" style="stop-color:#7B4200"/>
			<stop  offset="0.9826" style="stop-color:#9B6A00"/>
		</linearGradient>
		<path class="st5" d="M1108,424c6.7,13.3,74.7,54.7,204,124l298-210c-301.3-26.7-482.7-32-544-16
			C1087.3,376.7,1101.3,410.7,1108,424z"/>
		<path class="st6" d="M1086,370l122-32l173.8,58l200.2-26l28-32c-305.3-25.3-486.7-30.7-544-16L1086,370z"/>
		
			<linearGradient id="SVGID_6_" gradientUnits="userSpaceOnUse" x1="633.8327" y1="1291.5577" x2="634.8327" y2="1291.5577" gradientTransform="matrix(544 0 0 -52 -343739 67473)">
			<stop  offset="0" style="stop-color:#00FF55"/>
			<stop  offset="0.987" style="stop-color:#46CEFF"/>
		</linearGradient>
		<path class="st7" d="M1066,322l62-20l286-16l144,38l52,14L1066,322z"/>
		<path class="st8" d="M1269,294l81.5,36.4L1066,322l62-20l79-5L1269,294z"/>
		
			<linearGradient id="SVGID_7_" gradientUnits="userSpaceOnUse" x1="631.3319" y1="1289.2179" x2="632.3319" y2="1289.2179" gradientTransform="matrix(173.115 0 0 -96.766 -107954.9844 125015.8438)">
			<stop  offset="0" style="stop-color:#979797"/>
			<stop  offset="0.9826" style="stop-color:#555555"/>
		</linearGradient>
		<path class="st9" d="M1338,290.2l45-28.2l29-47l45,22l37,50l17.2,24.8C1466.3,302.6,1412.8,285.5,1338,290.2z"/>
		<path class="st10" d="M1472,664l-188,392l-622,266l-192,264l-214,14c8-230.7,102-376,282-436c158.7-45.3,283.3-66.7,374-64
			c64-233.3,154.7-362.7,272-388C1268,668,1364,652,1472,664z"/>
		<path class="st11" d="M1399,291.1l24-29.1l5-39l-16-8l-29,47l-44.9,28.2C1361,288.2,1381.4,290.4,1399,291.1z"/>
		<g class="st12">
			
				<linearGradient id="SVGID_8_" gradientUnits="userSpaceOnUse" x1="634.3448" y1="1286.7714" x2="635.3448" y2="1286.7714" gradientTransform="matrix(969.135 0 0 -969.135 -612838.75 1247156.625)">
				<stop  offset="0" style="stop-color:#FFFF00"/>
				<stop  offset="0.9783" style="stop-color:#FF9D00"/>
			</linearGradient>
			<circle vector-effect="non-scaling-stroke" class="st13" cx="2411.6" cy="101.4" r="484.6"/>
		</g>
		<g class="st14">
			<g>
				<polygon class="st3" points="296,287 248,370 296,444 340,370 				"/>
			</g>
		</g>
		<line class="st15" x1="465" y1="382.4" x2="451" y2="331.9"/>
		<line class="st15" x1="451" y1="331.9" x2="450.6" y2="330.4"/>
		<line class="st15" x1="671" y1="152.3" x2="673.6" y2="162"/>
		<line class="st15" x1="669.4" y1="146.8" x2="671" y2="152.3"/>
		<line class="st15" x1="673.6" y1="162" x2="682.4" y2="193.6"/>
		<path class="st16" d="M1098,405l98,23l85,57l31,63c-134.7-73.3-202.7-113.3-204-120L1098,405z"/>
		<path class="st17" d="M1281,485l185-80l20-22.6l74-9.4l-248,175L1281,485z"/>
		<path class="st18" d="M1477,262l-11,24l10.9,18.2c13.1,2.9,24.4,5.4,34,7.4L1477,262z"/>
		<g>
			<path class="st19" d="M1268.5,257.4l2,36.7l37-2.1l-2.2-36.7L1268.5,257.4z"/>
			<path class="st20" d="M1272.8,261.7l0.7,8.4l8.1-0.9l-0.2-4.3l-0.2-3.7L1272.8,261.7z"/>
			<path class="st21" d="M1277.4,265.6l0.2,4l4.1-0.5l-0.2-4.1L1277.4,265.6z"/>
			<path class="st20" d="M1299,259.9l0.7,8.1l-8.2,0.2l-0.4-4.3l-0.3-3.7L1299,259.9z"/>
			<path class="st21" d="M1295.3,264.1l0.4,4l-4.1,0.1l-0.3-4.1L1295.3,264.1z"/>
			<path class="st22" d="M1280.7,286l-3.9,0.2l-0.2-4.6l5.7-0.6l-0.5-5.1l9.7-1.1l0.7,5l5.1-0.4l0.5,5.5L1280.7,286z"/>
			<path class="st22" d="M1280.8,289.2l-3.8,0.4l-0.1-5l4.1-0.3L1280.8,289.2z"/>
			<path class="st22" d="M1294.3,288.5l3.9,0l-0.4-5l-4.1,0.1L1294.3,288.5z"/>
			<path class="st18" d="M1268,257.4l12.5,24.9l27.1,9.9l-37.4,1.9L1268,257.4z"/>
			<path class="st11" d="M1282.3,256.4l8.3,8l6.4,8.9l9.9,3.8l-1.9-22L1282.3,256.4z"/>
		</g>
		<path class="st6" d="M1808,760l112,400l310,150l318,258l4-212c-140-202.7-326.7-292.7-560-270C1976,938,1914.7,829.3,1808,760z"/>
		<path class="st23" d="M2123,0l5.4,292.9l446.1,236.5l-10.7,32.2c-139.7,52-290.2,29.6-451.5-67.2
			c-154.1-134.4-212.3-301-174.7-499.9L2123,0z"/>
		
			<linearGradient id="SVGID_9_" gradientUnits="userSpaceOnUse" x1="623.1982" y1="1291.7336" x2="624.1982" y2="1291.7336" gradientTransform="matrix(58.582 0 0 -72.512 -35766.2344 94157.7812)">
			<stop  offset="0" style="stop-color:#FFFFFF"/>
			<stop  offset="0.9696" style="stop-color:#4DA6FF"/>
		</linearGradient>
		<line vector-effect="non-scaling-stroke" class="st24" x1="742" y1="527.9" x2="800.6" y2="455.4"/>
		
			<linearGradient id="SVGID_10_" gradientUnits="userSpaceOnUse" x1="625.7393" y1="1292.3054" x2="626.7393" y2="1292.3054" gradientTransform="matrix(74.6559 0 0 -65.369 -45938.5195 84993.3125)">
			<stop  offset="0" style="stop-color:#FFFFFF"/>
			<stop  offset="0.9696" style="stop-color:#4DA6FF"/>
		</linearGradient>
		<line vector-effect="non-scaling-stroke" class="st25" x1="776.6" y1="549.3" x2="851.3" y2="484"/>
		
			<linearGradient id="SVGID_11_" gradientUnits="userSpaceOnUse" x1="628.2088" y1="1294.6725" x2="629.2088" y2="1294.6725" gradientTransform="matrix(101.804 0 0 -46.436 -63162.1875 60665.5781)">
			<stop  offset="0" style="stop-color:#FFFFFF"/>
			<stop  offset="0.9696" style="stop-color:#4DA6FF"/>
		</linearGradient>
		<line vector-effect="non-scaling-stroke" class="st26" x1="792" y1="569.3" x2="893.8" y2="522.9"/>
		
			<linearGradient id="SVGID_12_" gradientUnits="userSpaceOnUse" x1="627.496" y1="1293.827" x2="628.496" y2="1293.827" gradientTransform="matrix(66.069 0 0 -65.7631 -41276.9688 86277.2812)">
			<stop  offset="0" style="stop-color:#FFFFFF"/>
			<stop  offset="0.9696" style="stop-color:#4DA6FF"/>
		</linearGradient>
		<line vector-effect="non-scaling-stroke" class="st27" x1="247.1" y1="1158.4" x2="181.1" y2="1224.1"/>
		
			<linearGradient id="SVGID_13_" gradientUnits="userSpaceOnUse" x1="628.9001" y1="1294.9646" x2="629.9001" y2="1294.9646" gradientTransform="matrix(81.278 0 0 -56.925 -50982.0234 74877.7109)">
			<stop  offset="0" style="stop-color:#FFFFFF"/>
			<stop  offset="0.9696" style="stop-color:#4DA6FF"/>
		</linearGradient>
		<line vector-effect="non-scaling-stroke" class="st28" x1="215" y1="1133.3" x2="133.7" y2="1190.2"/>
		
			<linearGradient id="SVGID_14_" gradientUnits="userSpaceOnUse" x1="630.3326" y1="1300.1998" x2="631.3326" y2="1300.1998" gradientTransform="matrix(106.223 0 0 -35.172 -66860.1562 46859.9883)">
			<stop  offset="0" style="stop-color:#FFFFFF"/>
			<stop  offset="0.9696" style="stop-color:#4DA6FF"/>
		</linearGradient>
		<line vector-effect="non-scaling-stroke" class="st29" x1="201.9" y1="1111.8" x2="95.7" y2="1146.9"/>
		<g class="st30">
			
				<linearGradient id="SVGID_15_" gradientUnits="userSpaceOnUse" x1="617.1847" y1="1318.748" x2="618.1847" y2="1318.748" gradientTransform="matrix(27.829 0 0 -14.942 -16942.8066 20800.8418)">
				<stop  offset="0" style="stop-color:#F75C5C"/>
				<stop  offset="0.9783" style="stop-color:#CD9090"/>
			</linearGradient>
			<path class="st31" d="M232.8,1099.1l11.9,4.5l15.9-11.1l-14.5-3.9L232.8,1099.1z"/>
			
				<linearGradient id="SVGID_16_" gradientUnits="userSpaceOnUse" x1="610.9562" y1="1309.7643" x2="611.9563" y2="1309.7643" gradientTransform="matrix(20.62 0 0 -20.712 -12347.2402 28232.1484)">
				<stop  offset="0" style="stop-color:#FF5151"/>
				<stop  offset="0.9826" style="stop-color:#CC9393"/>
			</linearGradient>
			<path class="st32" d="M263.6,1094l7.7,9.2l-16.4,11.5l-4.2-9L263.6,1094z"/>
			
				<linearGradient id="SVGID_17_" gradientUnits="userSpaceOnUse" x1="626.4268" y1="1296.749" x2="627.4268" y2="1296.749" gradientTransform="matrix(57.829 0 0 -47.014 -35981.8281 62049.6445)">
				<stop  offset="0" style="stop-color:#915900"/>
				<stop  offset="0.987" style="stop-color:#804E00"/>
			</linearGradient>
			<path class="st33" d="M243.8,1103.9l55.6-43.2l2.2,1.6l-53.2,45.5L243.8,1103.9z"/>
			
				<linearGradient id="SVGID_18_" gradientUnits="userSpaceOnUse" x1="612.1022" y1="1313.0541" x2="613.1022" y2="1313.0541" gradientTransform="matrix(21.652 0 0 -18.146 -12963.0293 24887.832)">
				<stop  offset="0" style="stop-color:#FF4D4D"/>
				<stop  offset="0.9826" style="stop-color:#AA0000"/>
			</linearGradient>
			<path class="st34" d="M290.3,1060.3c0.8-0.1,8-2.9,21.5-8.2l-6.5,18.1l-5.1-8.3C292.8,1061,289.5,1060.5,290.3,1060.3z"/>
		</g>
		<path class="st35" d="M805.7,662.6c0.6-3.8,0.9-7.6,0.9-11.4c0-67.5-88.3-122.1-197.3-122.1c-75.2,0-140.5,26-173.8,64.3
			c-34.9-21-86-34.2-142.8-34.2c-98,0-178.7,39.3-189.5,89.9C57,654.4,21,693.7,21,741.3v16.9c0,51.3,41.6,92.9,92.9,92.9h53.9
			c-0.1,1.3-0.1,2.6-0.1,3.9c0,60.7,81.6,109.9,182.3,109.9c92.6,0,169.1-41.7,180.7-95.6c11.2,44.8,63.1,78.7,125.5,78.7
			c70.6,0,127.8-43.3,127.8-96.8c0-1.4,0-2.9-0.1-4.3c37.9-11.7,65.4-47.1,65.4-88.8v-16.9C849.3,708.2,831.9,679,805.7,662.6z"/>
	</g>
</g>
</svg>
